<svg xmlns="http://www.w3.org/2000/svg" viewBox="0 0 80 16" width="320" height="64" shape-rendering="crispEdges">
  <!-- E -->
  <rect x="0" y="0" width="8" height="2" fill="#4ADE80"/>
  <rect x="0" y="0" width="2" height="16" fill="#4ADE80"/>
  <rect x="0" y="6" width="6" height="2" fill="#4ADE80"/>
  <rect x="0" y="14" width="8" height="2" fill="#4ADE80"/>
  <!-- L -->
  <rect x="10" y="0" width="2" height="16" fill="#4ADE80"/>
  <rect x="10" y="14" width="8" height="2" fill="#4ADE80"/>
  <!-- I -->
  <rect x="20" y="0" width="6" height="2" fill="#4ADE80"/>
  <rect x="22" y="0" width="2" height="16" fill="#4ADE80"/>
  <rect x="20" y="14" width="6" height="2" fill="#4ADE80"/>
  <!-- F -->
  <rect x="28" y="0" width="8" height="2" fill="#4ADE80"/>
  <rect x="28" y="0" width="2" height="16" fill="#4ADE80"/>
  <rect x="28" y="6" width="6" height="2" fill="#4ADE80"/>
  <!-- O -->
  <rect x="38" y="0" width="8" height="2" fill="#FFD700"/>
  <rect x="38" y="0" width="2" height="16" fill="#FFD700"/>
  <rect x="44" y="0" width="2" height="16" fill="#FFD700"/>
  <rect x="38" y="14" width="8" height="2" fill="#FFD700"/>
  <!-- O -->
  <rect x="48" y="0" width="8" height="2" fill="#FFD700"/>
  <rect x="48" y="0" width="2" height="16" fill="#FFD700"/>
  <rect x="54" y="0" width="2" height="16" fill="#FFD700"/>
  <rect x="48" y="14" width="8" height="2" fill="#FFD700"/>
  <!-- T -->
  <rect x="58" y="0" width="8" height="2" fill="#4ADE80"/>
  <rect x="61" y="0" width="2" height="16" fill="#4ADE80"/>
  <!-- Ball -->
  <rect x="70" y="6" width="6" height="6" fill="#FFFFFF"/>
  <rect x="71" y="7" width="2" height="2" fill="#000000"/>
  <rect x="73" y="9" width="2" height="2" fill="#000000"/>
</svg>
